<svg id="OBJECT" xmlns="http://www.w3.org/2000/svg" viewBox="0 0 452.32 383.06"><defs><style>.cls-1,.cls-2{fill:#f5f5f5;}.cls-1,.cls-27{opacity:0.5;}.cls-14,.cls-15,.cls-18,.cls-22,.cls-23,.cls-24,.cls-3,.cls-7,.cls-9{fill:none;stroke-linecap:round;stroke-linejoin:round;}.cls-3{stroke:#d6d6d6;stroke-width:0.47px;}.cls-4{fill:#3db73d;}.cls-5{fill:#b6fdb8;}.cls-6{fill:#deffe1;}.cls-15,.cls-22,.cls-23,.cls-24,.cls-7{stroke:#262626;}.cls-27,.cls-8{fill:#fff;}.cls-18,.cls-9{stroke:#fff;}.cls-10{fill:#3897e9;}.cls-11{fill:#d6d6d6;}.cls-12{fill:#f7a99c;}.cls-13{fill:#016bff;}.cls-14{stroke:#3897e9;}.cls-14,.cls-22{stroke-width:0.73px;}.cls-15,.cls-18{stroke-width:0.41px;}.cls-16{fill:#1754af;}.cls-17{fill:#262626;}.cls-19{fill:#4450e4;}.cls-20{fill:#3748c4;}.cls-21{fill:#ff7769;}.cls-23{stroke-width:0.25px;}.cls-24{stroke-width:0.27px;}.cls-25{fill:#2138cc;}.cls-26{fill:#dcf0ff;opacity:0.2;}</style></defs><title>9318692</title><ellipse class="cls-1" cx="231" cy="352.37" rx="221.32" ry="30.69"/><path class="cls-2" d="M210.57,378.4a79,79,0,0,0-.83-12.65c-.64-4.33-2.66-18.13-9.94-28.56-11-15.77-23.47-8.74-36.25-25-7.32-9.33-5.26-14.22-13.62-21.69-7.39-6.59-15.33-9-23.78-10.41-21.39-3.52-56.29-.22-56.29-.22,3,33.82,14.32,47.81,24.13,54.33,13.77,9.16,24.36,3.55,36.64,14.51C146.6,363,136.11,379.12,151,394c0,0,6.52,6.5,57.14,16.12h0Z" transform="translate(-19.39 -81.14)"/><path class="cls-3" d="M208.16,410.09s-39.11-66.56-54-79.6-84.3-50.65-84.3-50.65" transform="translate(-19.39 -81.14)"/><line class="cls-3" x1="100.69" y1="227.09" x2="57.01" y2="229.53"/><line class="cls-3" x1="109.71" y1="232.49" x2="112.61" y2="200.1"/><line class="cls-3" x1="129.58" y1="245.33" x2="91.77" y2="259.3"/><line class="cls-3" x1="145.57" y1="261.93" x2="150.44" y2="237.37"/><line class="cls-3" x1="157.77" y1="279.33" x2="121.15" y2="286.02"/><line class="cls-3" x1="167.33" y1="294" x2="181.11" y2="257.09"/><line class="cls-3" x1="176.02" y1="307.87" x2="133.66" y2="314.12"/><path class="cls-2" d="M187.32,383.61a78.65,78.65,0,0,0-5.61-11.37c-2.23-3.75-9.38-15.74-20.09-22.59-16.19-10.37-25,.89-43.07-9.28-10.32-5.83-10.29-11.13-20.88-14.83-9.35-3.27-17.61-2.48-25.95-.54-21.11,4.93-52.1,21.31-52.1,21.31,15.65,30.13,31.51,38.71,43.07,41,16.22,3.2,23.87-6,39.4-.59,20.21,7.08,16.7,26,36.15,34.05,0,0,8.51,3.52,59-6.94h0Z" transform="translate(-19.39 -81.14)"/><path class="cls-3" d="M197.21,413.82s-61.58-46.56-80.33-52.92-97.26-14.59-97.26-14.59" transform="translate(-19.39 -81.14)"/><line class="cls-3" x1="57.49" y1="272.21" x2="18.06" y2="291.17"/><line class="cls-3" x1="67.89" y1="273.76" x2="58.19" y2="242.71"/><line class="cls-3" x1="91.15" y1="278.03" x2="61.55" y2="305.39"/><line class="cls-3" x1="112.28" y1="287.26" x2="107.39" y2="262.7"/><line class="cls-3" x1="130.21" y1="298.67" x2="98.92" y2="318.85"/><line class="cls-3" x1="144.64" y1="308.58" x2="143.27" y2="269.2"/><line class="cls-3" x1="157.98" y1="318.07" x2="121.22" y2="340.03"/><polygon class="cls-4" points="310.41 333.19 177.07 333.19 189.91 245.02 297.57 245.02 310.41 333.19"/><rect class="cls-5" x="62.7" y="21.17" width="362.07" height="239.39" rx="15.25"/><rect class="cls-6" x="71.49" y="28.38" width="344.5" height="207.07" rx="15.25"/><path class="cls-5" d="M358.06,420.74H168.2v-9.17A12.84,12.84,0,0,1,181,398.73H345.22a12.84,12.84,0,0,1,12.84,12.84Z" transform="translate(-19.39 -81.14)"/><line class="cls-7" x1="82.72" y1="235.45" x2="398.39" y2="235.45"/><path class="cls-7" d="M176.56,416.16v-4.82a5.27,5.27,0,0,1,5.27-5.27h142.4" transform="translate(-19.39 -81.14)"/><line class="cls-7" x1="289.7" y1="267.61" x2="294.75" y2="306.13"/><circle class="cls-8" cx="240.56" cy="248.78" r="7.39"/><path class="cls-9" d="M365,123.57h39.21a13.53,13.53,0,0,1,13.53,13.53v81.47" transform="translate(-19.39 -81.14)"/><path class="cls-10" d="M395,149.38a60.68,60.68,0,0,1,6.71-12.64,23.86,23.86,0,0,1,8.65-7.13,25.17,25.17,0,0,1,6.5-2.34,48.45,48.45,0,0,0,6.43-1.79,22.1,22.1,0,0,0,5.61-3,13.29,13.29,0,0,0,4.23-5.87q2.82-6.8.21-11a16,16,0,0,0-7.75-6.39q-7.33-3-11.81-.11c-3,2-5.66,5.15-8,9.57l-17.87-7.43a35.76,35.76,0,0,1,7.34-11.41A28.45,28.45,0,0,1,405.4,83a30.13,30.13,0,0,1,12.31-1.86,39.93,39.93,0,0,1,13.54,3.19q15,6.21,21.09,15.91t.42,23.41a32.16,32.16,0,0,1-4.12,7.38,22.37,22.37,0,0,1-5.21,4.91,29,29,0,0,1-6.53,3.21q-3.61,1.26-8,2.37a45.17,45.17,0,0,0-6.73,2.32,16.39,16.39,0,0,0-4.6,3.05,17.22,17.22,0,0,0-3.17,4.12,51.27,51.27,0,0,0-2.55,5.36ZM383.3,175.89l7.54-18.15,18.7,7.77L402,183.66Z" transform="translate(-19.39 -81.14)"/><path class="cls-2" d="M286,176.62V161.8a8.8,8.8,0,0,0-8.8-8.81h-86a8.8,8.8,0,0,0-8.8,8.81V275.35a8.8,8.8,0,0,0,8.8,8.8H328.73a8.8,8.8,0,0,0,8.8-8.8V185.42a8.8,8.8,0,0,0-8.8-8.8Z" transform="translate(-19.39 -81.14)"/><polygon class="cls-11" points="257.89 116.18 240.56 133.51 223.22 116.18 212.76 126.64 230.1 143.97 212.76 161.3 223.22 171.76 240.56 154.43 257.89 171.76 268.35 161.3 251.01 143.97 268.35 126.64 257.89 116.18"/><polygon class="cls-12" points="52.77 338.75 52.77 327.34 31.75 327.34 31.75 358.72 79.2 359.48 79.2 353.78 52.77 338.75"/><path class="cls-13" d="M100.27,440.62v-2.71a7.53,7.53,0,0,0-4-6.62l-20-10.8a31.48,31.48,0,0,1-13.8.87c-5.27-.89-10.29-3.28-12-1.28a2.68,2.68,0,0,0-.52,1.84v16.59a2.12,2.12,0,0,0,2.11,2.11Z" transform="translate(-19.39 -81.14)"/><line class="cls-14" x1="80.88" y1="357.67" x2="30.61" y2="357.67"/><line class="cls-14" x1="69.8" y1="346.54" x2="66.99" y2="350.26"/><line class="cls-14" x1="67.74" y1="345.37" x2="64.92" y2="349.09"/><line class="cls-14" x1="65.58" y1="344.29" x2="62.77" y2="348.01"/><path class="cls-14" d="M81.8,423.46a44.6,44.6,0,0,1-31.8,0" transform="translate(-19.39 -81.14)"/><polygon class="cls-12" points="112.67 338.75 112.67 327.34 91.66 327.34 91.66 358.72 139.1 359.48 139.1 353.78 112.67 338.75"/><path class="cls-13" d="M160.18,440.62v-2.71a7.53,7.53,0,0,0-4-6.62l-20-10.8a31.48,31.48,0,0,1-13.8.87c-5.26-.89-10.29-3.28-12-1.28a2.68,2.68,0,0,0-.52,1.84v16.59a2.11,2.11,0,0,0,2.1,2.11Z" transform="translate(-19.39 -81.14)"/><line class="cls-14" x1="140.78" y1="357.67" x2="90.52" y2="357.67"/><line class="cls-14" x1="129.71" y1="346.54" x2="126.89" y2="350.26"/><line class="cls-14" x1="127.65" y1="345.37" x2="124.83" y2="349.09"/><line class="cls-14" x1="125.49" y1="344.29" x2="122.67" y2="348.01"/><path class="cls-14" d="M141.71,423.46a44.6,44.6,0,0,1-31.8,0" transform="translate(-19.39 -81.14)"/><path class="cls-10" d="M120,257.38s17.3,55,20,62.57,5.14,18.26,4.57,27.58S135,414.28,135,414.28H109s-1.84-60.67-2.73-65.42-8.49-31.65-8.49-31.65S95.26,348.67,93.17,357s-18.83,58.19-18.83,58.19H50L60.27,257.38Z" transform="translate(-19.39 -81.14)"/><path class="cls-12" d="M159.7,223.88s8.27-7,10.36-11.6c1.79-3.92,4.29-10.82,5-12.72a.61.61,0,0,1,.71-.38l.49.12a2.83,2.83,0,0,1,2.11,3.43l-.82,3.44,8.73-5.73A1.55,1.55,0,0,1,188,203l-5.76,4.2,9.57-4.49a1.57,1.57,0,0,1,2,.64v0a1.57,1.57,0,0,1-.59,2.14l.11,0a1.75,1.75,0,0,1,1.14,3.31l-.61.24a1.4,1.4,0,0,1,1.79,1.07h0A2.71,2.71,0,0,1,194.3,213c-2.58,1.34-4.25,1.69-6.7,3.52-1.93,1.45-1.25,2.38-3.32,5-2.52,3.22-4.66,3.31-9,6.5A37.24,37.24,0,0,0,169,234Z" transform="translate(-19.39 -81.14)"/><path class="cls-15" d="M188.59,201.31a1.23,1.23,0,0,1-.39,1.52c-.84.64-7.34,5.45-7.34,5.45" transform="translate(-19.39 -81.14)"/><line class="cls-15" x1="173.89" y1="124.36" x2="164.93" y2="128.52"/><line class="cls-15" x1="174.81" y1="127.83" x2="165.81" y2="131.98"/><path class="cls-15" d="M176.86,199.53s1.57,1,1.53,2.1-1.63,8.2-1.63,8.2" transform="translate(-19.39 -81.14)"/><path class="cls-16" d="M109,414.28s-2.36-62.21-2.55-63.81-9-34.54-9-34.54l1.57-14.55s17.89,44,17.89,46.93,2,66,2,66Z" transform="translate(-19.39 -81.14)"/><line class="cls-15" x1="74.79" y1="272.09" x2="81.15" y2="203.35"/><polygon class="cls-17" points="116.62 327.86 89.36 327.86 89.56 333.14 115.62 333.14 116.62 327.86"/><polygon class="cls-17" points="56.53 329.38 30.92 329.38 30.61 334.09 54.95 334.09 56.53 329.38"/><path class="cls-18" d="M137.6,325.39a65.85,65.85,0,0,1,1.57,33.75" transform="translate(-19.39 -81.14)"/><path class="cls-19" d="M166.57,216.49a25,25,0,0,1-9.43,4.28c-5.89,1-11-2.46-12.37-3.39-3.73-2.55-5.11-5.57-7.58-9.11-7.32-10.47-11.86-17-18.22-20.66-3.29-1.9-8.78-4.05-17.45-3.39-1.94-.69-5-.14-7.12-.14H89.22c-3.4.41-28.45,3.32-32.71-.59a4.7,4.7,0,0,1-1.71-3.06c0-1.26.77-2.57,2.85-4.15,5.07-3.86,14.38-6.74,17.49-7.66l-1.9-14.21H69.06c-4.19,0-19,2.47-27,5.27-11.2,3.91-17.2,6.76-20.16,13.25-3.7,8.13.25,16.87,1.27,19.14,5.14,11.37,16.55,16,23.43,18.75a59.17,59.17,0,0,0,15.24,3.88L58.6,266.43l59.45,3.23H127c.69-7.91-2.73-32.46-2.29-40.49,7.59,10.57,20.17,15.9,32.1,13.61,13.22-2.54,19.86-13.32,20.94-15.13C173.12,218.55,166.57,216.49,166.57,216.49Z" transform="translate(-19.39 -81.14)"/><path class="cls-8" d="M72.74,106.92h3.75a0,0,0,0,1,0,0v21.52a3.17,3.17,0,0,1-3.17,3.17h-.57a0,0,0,0,1,0,0V106.92A0,0,0,0,1,72.74,106.92Z"/><path class="cls-20" d="M127.07,266.93C125,267.31,96.88,272,77,251c-16.78-17.71-14.8-40.13-14.45-43.45Q61,230.9,59.42,254.24h-.06l-.76,12.19,9.32.5v-.06q20.85,1.65,43,2.4,8.11.27,16,.39Z" transform="translate(-19.39 -81.14)"/><path class="cls-17" d="M111.31,165.39a38.88,38.88,0,0,0,.56-11.93,9.37,9.37,0,0,0-1.63-4.92,8.64,8.64,0,0,0-5-3.21c-3.6-.72-4.51,1.89-9.63,2.52-4.42.55-5.29-1.2-8.26.06-3.24,1.37-4.84,4.58-5.33,5.56a14.14,14.14,0,0,0-1.38,5.65,15.14,15.14,0,0,0,.69,5,148,148,0,0,1,3.33,15.51l2.07-.08Z" transform="translate(-19.39 -81.14)"/><path class="cls-12" d="M93.8,191.11h0a7,7,0,0,1-7-7l-.06-15.07,14,0,0,15.07A7,7,0,0,1,93.8,191.11Z" transform="translate(-19.39 -81.14)"/><path class="cls-21" d="M100.76,179.87l-9.12-4.69a10.71,10.71,0,0,0,3.86,7,10.36,10.36,0,0,0,5.27,2.11Z" transform="translate(-19.39 -81.14)"/><path class="cls-12" d="M86.37,164.4c0-.23-.64-.57-.83-.69a4.15,4.15,0,0,0-1-.47,4.06,4.06,0,0,0-2.13-.11,3.77,3.77,0,0,0-2.87,2.93,4.21,4.21,0,0,0,.42,2.46,6.25,6.25,0,0,0,2.55,2.76,6.87,6.87,0,0,0,3,.88,15.2,15.2,0,0,0,2.35-.12C87.36,169.5,86.87,167,86.37,164.4Z" transform="translate(-19.39 -81.14)"/><path class="cls-12" d="M84.45,164.55A18,18,0,0,0,91,175.79c1,.77,7.53,5.9,13.52,3.4,7.7-3.22,6.86-15.86,6.81-16.54-.19-2.32-.73-9.14-6.37-12.77a13.57,13.57,0,0,0-18.72,4.32A14.74,14.74,0,0,0,84.45,164.55Z" transform="translate(-19.39 -81.14)"/><path class="cls-17" d="M106.91,162.65a1.51,1.51,0,1,0,1.25-2A1.67,1.67,0,0,0,106.91,162.65Z" transform="translate(-19.39 -81.14)"/><path class="cls-17" d="M98,163.77a1.51,1.51,0,1,0,1.25-2A1.66,1.66,0,0,0,98,163.77Z" transform="translate(-19.39 -81.14)"/><path class="cls-22" d="M104.22,164.13l1.37,1.84a.72.72,0,0,1-.21,1l-1.25.76" transform="translate(-19.39 -81.14)"/><path class="cls-21" d="M95,168.42a2,2,0,1,0,1.75-2.26A2,2,0,0,0,95,168.42Z" transform="translate(-19.39 -81.14)"/><path class="cls-22" d="M85.43,169.46a3.72,3.72,0,0,0-1.18-2.81,3.66,3.66,0,0,0-2.34-.91" transform="translate(-19.39 -81.14)"/><path class="cls-22" d="M84.37,167a1.7,1.7,0,0,0-1.44.49,1.68,1.68,0,0,0-.42,1.23" transform="translate(-19.39 -81.14)"/><path class="cls-17" d="M84.27,163.17A3.07,3.07,0,0,1,86,164a4.6,4.6,0,0,1,1,2,19.39,19.39,0,0,0,10.29-4.5,18.85,18.85,0,0,0,4.25-5.36,14,14,0,0,0,3.72,2.39c2.29,1,5.14,1.45,5.52.69a4,4,0,0,0-.16-1.38,9,9,0,0,0-.26-1.16,13.11,13.11,0,0,0-1.09-2.38,13.88,13.88,0,0,0-3.43-3.93,13.42,13.42,0,0,0-2.92-1.72,14.17,14.17,0,0,0-11.9.7,15.73,15.73,0,0,0-6.39,7,12.77,12.77,0,0,0-.88,3.72,6.17,6.17,0,0,0,.21,2.36A6.66,6.66,0,0,0,84.27,163.17Z" transform="translate(-19.39 -81.14)"/><path class="cls-21" d="M110.23,165.22a2.07,2.07,0,0,1,1.08.17,30.63,30.63,0,0,1-.38,3.8,1.42,1.42,0,0,1-.2,0,2,2,0,1,1-.5-4Z" transform="translate(-19.39 -81.14)"/><path class="cls-23" d="M95.4,148.42c-.66-.25-1.62-.6-2.81-.94-2.6-.75-3.9-1.12-5.09-1-3.46.45-5.46,5-6.29,6.93a11.75,11.75,0,0,0-1.12,7,10.83,10.83,0,0,0,1.11,3.16" transform="translate(-19.39 -81.14)"/><path class="cls-23" d="M95.4,148c1.17-.51,2.42-.93,3.55-1.51a30.92,30.92,0,0,1,3.49-1.89,6.6,6.6,0,0,1,4.18-.29,6.91,6.91,0,0,1,3,2.05,10.63,10.63,0,0,1,2.4,4.28c.85,3.06.09,6.26-.41,9.31" transform="translate(-19.39 -81.14)"/><path class="cls-8" d="M105.73,172a2.21,2.21,0,1,1-2.17-1.8A2,2,0,0,1,105.73,172Z" transform="translate(-19.39 -81.14)"/><path class="cls-12" d="M73.57,156.85l4-2.44s.82-3.52,1.93-4.27,7-3,7-3l.86.81s-4.62,4.22-5.58,6.09-1.13,7.09-1.13,7.09l-4.52,5.85-1.11.83Z" transform="translate(-19.39 -81.14)"/><line class="cls-15" x1="43.16" y1="128.69" x2="41.05" y2="155.72"/><line class="cls-15" x1="104.27" y1="130.9" x2="105.88" y2="160.72"/><path class="cls-18" d="M31.29,169.46a15.66,15.66,0,0,0-1.84,22.87" transform="translate(-19.39 -81.14)"/><path class="cls-18" d="M134,231.16a20.8,20.8,0,0,0,26.21,3.94" transform="translate(-19.39 -81.14)"/><path class="cls-2" d="M322.94,254.84l9.27-5L346,252.41l6.88-7.34,16.28,4.36,9.06-12.38L394.36,247l-5.5-35-21.34-14.95-49,7.72a3.38,3.38,0,0,0-2.81,3.85Z" transform="translate(-19.39 -81.14)"/><path class="cls-11" d="M372.5,214.57,388.86,212l-21.34-14.95L370,212.74A2.19,2.19,0,0,0,372.5,214.57Z" transform="translate(-19.39 -81.14)"/><path class="cls-24" d="M367.52,197.05,370,212.74a2.19,2.19,0,0,0,2.51,1.83L388.86,212" transform="translate(-19.39 -81.14)"/><path class="cls-2" d="M329.55,300.75a3.36,3.36,0,0,0,3.85,2.8l64.26-10.11a3.37,3.37,0,0,0,2.8-3.85l-6.1-38.73-16.17-9.92-9.06,12.39L352.85,249,346,256.31l-13.76-2.53-9.27,5Z" transform="translate(-19.39 -81.14)"/><path class="cls-24" d="M323,254.84l9.28-5L346,252.41l6.88-7.34,16.28,4.36,9.06-12.38L394.38,247l-5.51-35-21.34-14.95-49,7.72a3.37,3.37,0,0,0-2.8,3.85Z" transform="translate(-19.39 -81.14)"/><path class="cls-24" d="M329.56,300.75a3.37,3.37,0,0,0,3.85,2.8l64.26-10.11a3.36,3.36,0,0,0,2.8-3.85l-6.09-38.73-16.18-9.92-9.06,12.39L352.86,249,346,256.31l-13.75-2.53-9.28,5Z" transform="translate(-19.39 -81.14)"/><polygon class="cls-25" points="54.97 64.96 53.35 66.51 39 53.55 43.13 49.61 54.97 64.96"/><polygon class="cls-25" points="58.51 62.3 56.31 62.71 51.39 44.02 57 42.98 58.51 62.3"/><polygon class="cls-25" points="50.87 68.49 50.68 70.72 31.35 70.58 31.82 64.89 50.87 68.49"/><path class="cls-25" d="M301.21,433.06h0a12.31,12.31,0,0,1-.15-17.41L357.75,358l17.57,17.26-56.7,57.69A12.31,12.31,0,0,1,301.21,433.06Z" transform="translate(-19.39 -81.14)"/><circle class="cls-26" cx="402.24" cy="330.26" r="49.79" transform="matrix(1, 0, 0, 1, -20.14, -80.22)"/><path class="cls-27" d="M355.65,347.81a49.75,49.75,0,0,0,7,12.66L452,329.57a50.06,50.06,0,0,0-2.3-14.3Z" transform="translate(-19.39 -81.14)"/><path class="cls-27" d="M352.57,333.55a49,49,0,0,0,1.28,8.4l93.67-32.4a49.71,49.71,0,0,0-4.18-7.4Z" transform="translate(-19.39 -81.14)"/><path class="cls-25" d="M442.52,289.27a57.47,57.47,0,1,0,.7,81.27A57.47,57.47,0,0,0,442.52,289.27ZM369.07,364a47.32,47.32,0,1,1,66.92-.58A47.32,47.32,0,0,1,369.07,364Z" transform="translate(-19.39 -81.14)"/><line class="cls-9" x1="342.34" y1="299.39" x2="297.51" y2="345.01"/><path class="cls-9" d="M406.36,276.92a50.48,50.48,0,0,0-55.53,51" transform="translate(-19.39 -81.14)"/></svg>